<?xml version="1.0" encoding="UTF-8"?>
<svg xmlns="http://www.w3.org/2000/svg" xmlns:xlink="http://www.w3.org/1999/xlink" width="115px" height="27px" viewBox="0 0 114 27" version="1.1">
<defs>
<clipPath id="clip1">
  <path d="M 0 11 L 19 11 L 19 27 L 0 27 Z M 0 11 "/>
</clipPath>
<clipPath id="clip2">
  <path d="M -1.753906 9.050781 L 115.765625 9.050781 L 115.765625 28.597656 L -1.753906 28.597656 Z M 101.242188 11.042969 C 101.242188 5.054688 96.402344 0.199219 90.433594 0.199219 C 84.464844 0.199219 79.625 5.054688 79.625 11.042969 C 79.625 17.03125 84.464844 21.886719 90.433594 21.886719 C 96.402344 21.886719 101.242188 17.03125 101.242188 11.042969 Z M 101.242188 11.042969 "/>
</clipPath>
<clipPath id="clip3">
  <path d="M 24 10 L 45 10 L 45 27 L 24 27 Z M 24 10 "/>
</clipPath>
<clipPath id="clip4">
  <path d="M -1.753906 9.050781 L 115.765625 9.050781 L 115.765625 28.597656 L -1.753906 28.597656 Z M 101.242188 11.042969 C 101.242188 5.054688 96.402344 0.199219 90.433594 0.199219 C 84.464844 0.199219 79.625 5.054688 79.625 11.042969 C 79.625 17.03125 84.464844 21.886719 90.433594 21.886719 C 96.402344 21.886719 101.242188 17.03125 101.242188 11.042969 Z M 101.242188 11.042969 "/>
</clipPath>
<clipPath id="clip5">
  <path d="M 50 11 L 67 11 L 67 27 L 50 27 Z M 50 11 "/>
</clipPath>
<clipPath id="clip6">
  <path d="M -1.753906 9.050781 L 115.765625 9.050781 L 115.765625 28.597656 L -1.753906 28.597656 Z M 101.242188 11.042969 C 101.242188 5.054688 96.402344 0.199219 90.433594 0.199219 C 84.464844 0.199219 79.625 5.054688 79.625 11.042969 C 79.625 17.03125 84.464844 21.886719 90.433594 21.886719 C 96.402344 21.886719 101.242188 17.03125 101.242188 11.042969 Z M 101.242188 11.042969 "/>
</clipPath>
<clipPath id="clip7">
  <path d="M 71 11 L 91 11 L 91 27 L 71 27 Z M 71 11 "/>
</clipPath>
<clipPath id="clip8">
  <path d="M -1.753906 9.050781 L 115.765625 9.050781 L 115.765625 28.597656 L -1.753906 28.597656 Z M 101.242188 11.042969 C 101.242188 5.054688 96.402344 0.199219 90.433594 0.199219 C 84.464844 0.199219 79.625 5.054688 79.625 11.042969 C 79.625 17.03125 84.464844 21.886719 90.433594 21.886719 C 96.402344 21.886719 101.242188 17.03125 101.242188 11.042969 Z M 101.242188 11.042969 "/>
</clipPath>
<clipPath id="clip9">
  <path d="M 95 11 L 114 11 L 114 27 L 95 27 Z M 95 11 "/>
</clipPath>
<clipPath id="clip10">
  <path d="M -1.753906 9.050781 L 115.765625 9.050781 L 115.765625 28.597656 L -1.753906 28.597656 Z M 101.242188 11.042969 C 101.242188 5.054688 96.402344 0.199219 90.433594 0.199219 C 84.464844 0.199219 79.625 5.054688 79.625 11.042969 C 79.625 17.03125 84.464844 21.886719 90.433594 21.886719 C 96.402344 21.886719 101.242188 17.03125 101.242188 11.042969 Z M 101.242188 11.042969 "/>
</clipPath>
<clipPath id="clip11">
  <path d="M 79 8 L 91 8 L 91 22 L 79 22 Z M 79 8 "/>
</clipPath>
<clipPath id="clip12">
  <path d="M 101.242188 11.042969 C 101.242188 17.03125 96.402344 21.886719 90.433594 21.886719 C 84.464844 21.886719 79.625 17.03125 79.625 11.042969 C 79.625 5.054688 84.464844 0.199219 90.433594 0.199219 C 96.402344 0.199219 101.242188 5.054688 101.242188 11.042969 Z M 101.242188 11.042969 "/>
</clipPath>
<clipPath id="clip13">
  <path d="M 96 8 L 102 8 L 102 22 L 96 22 Z M 96 8 "/>
</clipPath>
<clipPath id="clip14">
  <path d="M 101.242188 11.042969 C 101.242188 17.03125 96.402344 21.886719 90.433594 21.886719 C 84.464844 21.886719 79.625 17.03125 79.625 11.042969 C 79.625 5.054688 84.464844 0.199219 90.433594 0.199219 C 96.402344 0.199219 101.242188 5.054688 101.242188 11.042969 Z M 101.242188 11.042969 "/>
</clipPath>
<filter id="alpha" filterUnits="objectBoundingBox" x="0%" y="0%" width="100%" height="100%">
  <feColorMatrix type="matrix" in="SourceGraphic" values="0 0 0 0 1 0 0 0 0 1 0 0 0 0 1 0 0 0 1 0"/>
</filter>
<mask id="mask0">
  <g filter="url(#alpha)">
<rect x="0" y="0" width="114" height="27" style="fill:rgb(0%,0%,0%);fill-opacity:0.6;stroke:none;"/>
  </g>
</mask>
<clipPath id="clip15">
  <rect x="0" y="0" width="114" height="27"/>
</clipPath>
<g id="surface5" clip-path="url(#clip15)">
<path style=" stroke:none;fill-rule:nonzero;fill:rgb(0%,0%,0%);fill-opacity:0.403922;" d="M 101.242188 11.042969 C 101.242188 17.03125 96.402344 21.886719 90.433594 21.886719 C 84.464844 21.886719 79.625 17.03125 79.625 11.042969 C 79.625 5.054688 84.464844 0.199219 90.433594 0.199219 C 96.402344 0.199219 101.242188 5.054688 101.242188 11.042969 Z M 101.242188 11.042969 "/>
</g>
</defs>
<g id="surface1">
<g clip-path="url(#clip1)" clip-rule="nonzero">
<g clip-path="url(#clip2)" clip-rule="nonzero">
<path style=" stroke:none;fill-rule:nonzero;fill:rgb(29.803922%,29.803922%,29.803922%);fill-opacity:1;" d="M 0 26.601562 L 0 12.628906 C 0 11.953125 0.132812 11.527344 0.402344 11.347656 C 0.695312 11.167969 1.175781 11.078125 1.851562 11.078125 L 5.515625 11.078125 L 5.515625 17.117188 L 13.121094 17.117188 L 13.121094 11.078125 L 18.636719 11.078125 L 18.636719 24.847656 C 18.636719 25.542969 18.523438 26.015625 18.300781 26.265625 C 18.074219 26.488281 17.558594 26.601562 16.753906 26.601562 L 13.121094 26.601562 L 13.121094 19.988281 L 5.515625 19.988281 L 5.515625 26.601562 Z M 0 26.601562 "/>
</g>
</g>
<g clip-path="url(#clip3)" clip-rule="nonzero">
<g clip-path="url(#clip4)" clip-rule="nonzero">
<path style=" stroke:none;fill-rule:nonzero;fill:rgb(29.803922%,29.803922%,29.803922%);fill-opacity:1;" d="M 34.742188 26.839844 C 32.945312 26.839844 31.421875 26.714844 30.167969 26.46875 C 28.910156 26.21875 27.878906 25.804688 27.070312 25.21875 C 26.285156 24.609375 25.703125 23.789062 25.320312 22.753906 C 24.964844 21.71875 24.785156 20.414062 24.785156 18.839844 C 24.785156 17.21875 24.972656 15.902344 25.355469 14.890625 C 25.738281 13.855469 26.332031 13.046875 27.136719 12.460938 C 27.96875 11.851562 29.011719 11.425781 30.265625 11.179688 C 31.546875 10.929688 33.070312 10.808594 34.84375 10.808594 C 36.613281 10.808594 38.128906 10.929688 39.382812 11.179688 C 40.640625 11.425781 41.660156 11.851562 42.445312 12.460938 C 43.25 13.046875 43.835938 13.855469 44.195312 14.890625 C 44.574219 15.925781 44.765625 17.242188 44.765625 18.839844 C 44.765625 20.4375 44.574219 21.753906 44.195312 22.789062 C 43.8125 23.824219 43.21875 24.644531 42.410156 25.253906 C 41.601562 25.835938 40.5625 26.253906 39.28125 26.5 C 38.027344 26.726562 36.511719 26.839844 34.742188 26.839844 Z M 34.773438 23.96875 C 35.515625 23.96875 36.152344 23.902344 36.691406 23.765625 C 37.253906 23.609375 37.703125 23.339844 38.039062 22.957031 C 38.398438 22.574219 38.65625 22.058594 38.8125 21.40625 C 38.992188 20.730469 39.082031 19.875 39.082031 18.839844 C 39.082031 17.78125 38.992188 16.925781 38.8125 16.273438 C 38.65625 15.601562 38.398438 15.082031 38.039062 14.722656 C 37.703125 14.339844 37.253906 14.082031 36.691406 13.945312 C 36.152344 13.789062 35.515625 13.710938 34.773438 13.710938 C 34.011719 13.710938 33.351562 13.789062 32.789062 13.945312 C 32.25 14.082031 31.8125 14.339844 31.476562 14.722656 C 31.140625 15.082031 30.882812 15.601562 30.703125 16.273438 C 30.523438 16.925781 30.433594 17.78125 30.433594 18.839844 C 30.433594 19.875 30.523438 20.730469 30.703125 21.40625 C 30.882812 22.058594 31.140625 22.574219 31.476562 22.957031 C 31.8125 23.339844 32.25 23.609375 32.789062 23.765625 C 33.351562 23.902344 34.011719 23.96875 34.773438 23.96875 Z M 34.773438 23.96875 "/>
</g>
</g>
<g clip-path="url(#clip5)" clip-rule="nonzero">
<g clip-path="url(#clip6)" clip-rule="nonzero">
<path style=" stroke:none;fill-rule:nonzero;fill:rgb(29.803922%,29.803922%,29.803922%);fill-opacity:1;" d="M 56.429688 11.078125 L 56.429688 23.699219 L 66.355469 23.699219 L 66.355469 26.601562 L 50.914062 26.601562 L 50.914062 12.898438 C 50.914062 12.496094 50.9375 12.15625 50.980469 11.886719 C 51.046875 11.617188 51.203125 11.414062 51.453125 11.28125 C 51.699219 11.144531 52.125 11.078125 52.730469 11.078125 Z M 56.429688 11.078125 "/>
</g>
</g>
<g clip-path="url(#clip7)" clip-rule="nonzero">
<g clip-path="url(#clip8)" clip-rule="nonzero">
<path style=" stroke:none;fill-rule:nonzero;fill:rgb(29.803922%,29.803922%,29.803922%);fill-opacity:1;" d="M 90.835938 18.90625 C 90.835938 20.550781 90.644531 21.886719 90.261719 22.921875 C 89.902344 23.9375 89.332031 24.710938 88.546875 25.253906 C 87.785156 25.792969 86.808594 26.164062 85.621094 26.367188 C 84.433594 26.546875 83.007812 26.636719 81.347656 26.636719 C 80.339844 26.636719 79.375 26.636719 78.457031 26.636719 C 77.535156 26.636719 76.671875 26.625 75.863281 26.601562 C 75.058594 26.601562 74.296875 26.601562 73.578125 26.601562 C 72.882812 26.601562 72.230469 26.601562 71.625 26.601562 L 71.625 13.304688 C 71.625 12.515625 71.785156 11.953125 72.097656 11.617188 C 72.410156 11.28125 72.996094 11.101562 73.847656 11.078125 C 74.429688 11.078125 75.058594 11.078125 75.730469 11.078125 C 76.425781 11.054688 77.121094 11.042969 77.816406 11.042969 C 78.535156 11.042969 79.242188 11.042969 79.933594 11.042969 C 80.652344 11.042969 81.316406 11.042969 81.921875 11.042969 C 83.511719 11.066406 84.871094 11.191406 85.992188 11.414062 C 87.113281 11.617188 88.03125 12 88.75 12.5625 C 89.464844 13.101562 89.992188 13.890625 90.328125 14.925781 C 90.667969 15.9375 90.835938 17.265625 90.835938 18.90625 Z M 77.144531 23.800781 C 77.367188 23.800781 77.625 23.800781 77.917969 23.800781 C 78.230469 23.800781 78.554688 23.8125 78.894531 23.835938 C 79.25 23.835938 79.597656 23.835938 79.933594 23.835938 C 80.273438 23.835938 80.5625 23.835938 80.808594 23.835938 C 81.59375 23.835938 82.269531 23.765625 82.828125 23.632812 C 83.390625 23.496094 83.835938 23.25 84.175781 22.890625 C 84.511719 22.53125 84.757812 22.023438 84.914062 21.371094 C 85.070312 20.71875 85.148438 19.898438 85.148438 18.90625 C 85.148438 17.488281 85.003906 16.421875 84.710938 15.699219 C 84.441406 14.980469 83.984375 14.496094 83.332031 14.25 C 82.707031 13.980469 81.820312 13.84375 80.675781 13.84375 C 80.40625 13.84375 80.058594 13.84375 79.632812 13.84375 C 79.230469 13.84375 78.824219 13.855469 78.421875 13.878906 C 78.019531 13.878906 77.671875 13.890625 77.378906 13.914062 C 77.3125 14.023438 77.253906 14.160156 77.210938 14.316406 C 77.164062 14.476562 77.144531 14.699219 77.144531 14.992188 Z M 77.144531 23.800781 "/>
</g>
</g>
<g clip-path="url(#clip9)" clip-rule="nonzero">
<g clip-path="url(#clip10)" clip-rule="nonzero">
<path style=" stroke:none;fill-rule:nonzero;fill:rgb(29.803922%,29.803922%,29.803922%);fill-opacity:1;" d="M 95.445312 11.078125 L 114.015625 11.078125 L 114.015625 14.011719 L 107.523438 14.011719 L 107.523438 24.78125 C 107.523438 25.5 107.410156 25.984375 107.1875 26.230469 C 106.960938 26.476562 106.457031 26.601562 105.671875 26.601562 L 101.972656 26.601562 L 101.972656 14.011719 L 95.445312 14.011719 Z M 95.445312 11.078125 "/>
</g>
</g>
<g clip-path="url(#clip11)" clip-rule="nonzero">
<g clip-path="url(#clip12)" clip-rule="nonzero">
<path style=" stroke:none;fill-rule:nonzero;fill:rgb(31.372549%,42.745098%,68.235294%);fill-opacity:1;" d="M 71.679688 8.089844 C 70.699219 8.089844 69.722656 8.105469 68.742188 8.136719 L 66.085938 8.136719 C 64.886719 8.171875 64.066406 8.425781 63.621094 8.898438 C 63.179688 9.375 62.957031 10.167969 62.957031 11.277344 L 62.957031 30.011719 L 68.929688 30.011719 C 70.066406 30.042969 71.285156 30.058594 72.582031 30.058594 L 76.65625 30.058594 C 78.996094 30.058594 81 29.933594 82.675781 29.679688 C 84.351562 29.394531 85.726562 28.871094 86.800781 28.109375 C 87.90625 27.351562 88.710938 26.257812 89.21875 24.828125 C 89.753906 23.371094 90.023438 21.484375 90.023438 19.171875 C 90.023438 16.855469 89.785156 14.984375 89.3125 13.558594 C 88.835938 12.101562 88.09375 10.992188 87.082031 10.230469 C 86.074219 9.4375 84.777344 8.898438 83.199219 8.613281 C 81.617188 8.296875 79.707031 8.121094 77.460938 8.089844 Z M 74.238281 12.039062 L 75.707031 12.039062 C 77.320312 12.039062 78.570312 12.226562 79.453125 12.609375 C 80.371094 12.957031 81.015625 13.640625 81.394531 14.652344 C 81.808594 15.667969 82.011719 17.171875 82.011719 19.171875 C 82.011719 20.566406 81.902344 21.722656 81.679688 22.644531 C 81.460938 23.5625 81.113281 24.273438 80.636719 24.78125 C 80.164062 25.289062 79.53125 25.636719 78.742188 25.828125 C 77.953125 26.019531 77.003906 26.113281 75.898438 26.113281 L 73.195312 26.113281 C 72.722656 26.082031 72.265625 26.066406 71.824219 26.066406 L 70.730469 26.066406 L 70.730469 13.65625 C 70.730469 13.242188 70.761719 12.925781 70.828125 12.703125 C 70.890625 12.480469 70.96875 12.292969 71.0625 12.132812 C 71.476562 12.101562 71.964844 12.085938 72.535156 12.085938 C 73.101562 12.054688 73.671875 12.039062 74.238281 12.039062 Z M 85.558594 12.125 L 87 12.707031 C 87.21875 13.050781 86.542969 13.742188 86.542969 13.742188 L 87.570312 14.148438 C 87.570312 14.148438 87.132812 14.679688 86.808594 14.546875 C 87.398438 15.421875 85.265625 14.230469 85.265625 14.230469 C 85.125 13.9375 85.640625 13.453125 85.640625 13.453125 C 85.640625 13.453125 84.9375 13.828125 84.902344 13.328125 L 85.589844 12.675781 C 85.589844 12.675781 85 12.730469 85.210938 12.269531 Z M 85.558594 12.125 "/>
</g>
</g>
<g clip-path="url(#clip13)" clip-rule="nonzero">
<g clip-path="url(#clip14)" clip-rule="nonzero">
<path style=" stroke:none;fill-rule:nonzero;fill:rgb(31.372549%,42.745098%,68.235294%);fill-opacity:1;" d="M 96.519531 8.140625 L 122.683594 8.140625 L 122.683594 12.277344 L 113.535156 12.277344 L 113.535156 27.445312 C 113.535156 28.460938 113.375 29.140625 113.0625 29.488281 C 112.746094 29.839844 112.035156 30.011719 110.929688 30.011719 L 105.714844 30.011719 L 105.714844 12.277344 L 96.519531 12.277344 Z M 96.519531 8.140625 "/>
</g>
</g>
<use xlink:href="#surface5" mask="url(#mask0)"/>
<path style="fill:none;stroke-width:0.3;stroke-linecap:butt;stroke-linejoin:miter;stroke:rgb(100%,100%,100%);stroke-opacity:1;stroke-miterlimit:4;" d="M 95.644955 66.453357 C 95.644955 70.960094 91.990543 74.614283 87.483729 74.614283 C 82.976916 74.614283 79.322504 70.960094 79.322504 66.453357 C 79.322504 61.946621 82.976916 58.292432 87.483729 58.292432 C 91.990543 58.292432 95.644955 61.946621 95.644955 66.453357 Z M 95.644955 66.453357 " transform="matrix(1.324384,0,0,1.32874,-25.428425,-77.256276)"/>
</g>
</svg>
