<?xml version="1.0" encoding="UTF-8" standalone="no"?>
<!-- Created with Inkscape (http://www.inkscape.org/) -->

<svg
   width="90mm"
   height="30mm"
   viewBox="0 0 90 30"
   version="1.1"
   id="svg5"
   inkscape:version="1.2.2 (b0a8486541, 2022-12-01)"
   sodipodi:docname="logo_coloured_text_under.svg"
   inkscape:export-filename="logo_coloured_text_under.png"
   inkscape:export-xdpi="360"
   inkscape:export-ydpi="360"
   xmlns:inkscape="http://www.inkscape.org/namespaces/inkscape"
   xmlns:sodipodi="http://sodipodi.sourceforge.net/DTD/sodipodi-0.dtd"
   xmlns="http://www.w3.org/2000/svg"
   xmlns:svg="http://www.w3.org/2000/svg">
  <sodipodi:namedview
     id="namedview7"
     pagecolor="#ffffff"
     bordercolor="#666666"
     borderopacity="1.0"
     inkscape:showpageshadow="2"
     inkscape:pageopacity="0"
     inkscape:pagecheckerboard="0"
     inkscape:deskcolor="#d1d1d1"
     inkscape:document-units="mm"
     showgrid="false"
     showguides="true"
     inkscape:zoom="2.8284271"
     inkscape:cx="152.02796"
     inkscape:cy="65.230601"
     inkscape:window-width="1920"
     inkscape:window-height="1080"
     inkscape:window-x="0"
     inkscape:window-y="0"
     inkscape:window-maximized="1"
     inkscape:current-layer="layer2" />
  <defs
     id="defs2">
    <inkscape:path-effect
       effect="powerclip"
       id="path-effect1403"
       is_visible="true"
       lpeversion="1"
       inverse="true"
       flatten="false"
       hide_clip="false"
       message="Use fill-rule evenodd on &lt;b&gt;fill and stroke&lt;/b&gt; dialog if no flatten result after convert clip to paths." />
    <rect
       x="73.825325"
       y="394.82111"
       width="719.87549"
       height="102.68607"
       id="rect418" />
    <rect
       x="25.362778"
       y="173.73273"
       width="714.7265"
       height="398.34866"
       id="rect2753" />
    <inkscape:path-effect
       effect="powerclip"
       id="path-effect2727"
       is_visible="true"
       lpeversion="1"
       inverse="true"
       flatten="false"
       hide_clip="false"
       message="Use fill-rule evenodd on &lt;b&gt;fill and stroke&lt;/b&gt; dialog if no flatten result after convert clip to paths." />
    <rect
       x="98.526573"
       y="323.51685"
       width="363.67484"
       height="251.43402"
       id="rect2558" />
    <clipPath
       clipPathUnits="userSpaceOnUse"
       id="clipPath2692">
      <ellipse
         style="fill:none;stroke:#000000;stroke-width:3;stroke-dasharray:none;stroke-opacity:1"
         id="ellipse2694"
         cx="160.73692"
         cy="370.043"
         rx="33.419525"
         ry="25.255043" />
    </clipPath>
    <clipPath
       clipPathUnits="userSpaceOnUse"
       id="clipPath2723">
      <ellipse
         style="display:block;fill:none;stroke:#000000;stroke-width:2.99999;stroke-dasharray:none;stroke-opacity:1"
         id="ellipse2725"
         cx="166.28731"
         cy="377.49991"
         rx="44.14949"
         ry="33.363647" />
    </clipPath>
    <rect
       x="25.362778"
       y="173.73273"
       width="714.7265"
       height="398.34866"
       id="rect2753-7" />
    <rect
       x="73.825325"
       y="394.82111"
       width="719.87549"
       height="102.68607"
       id="rect418-2" />
    <clipPath
       clipPathUnits="userSpaceOnUse"
       id="clipPath1339">
      <circle
         style="fill:none;stroke:#000000;stroke-width:0.999999;stroke-dasharray:none;stroke-opacity:1"
         id="circle1341"
         r="30.845636"
         cy="210.2312"
         cx="289.01239" />
    </clipPath>
    <rect
       x="25.362778"
       y="173.73273"
       width="714.7265"
       height="398.34866"
       id="rect2753-73" />
    <clipPath
       clipPathUnits="userSpaceOnUse"
       id="clipPath1399">
      <circle
         style="display:none;fill:none;stroke:#000000;stroke-width:0.999999;stroke-dasharray:none;stroke-opacity:1"
         id="circle1401"
         cx="289.01239"
         cy="210.90321"
         r="30.845636" />
      <path
         id="lpe_path-effect1403"
         style="fill:none;stroke:#000000;stroke-width:0.999999;stroke-dasharray:none;stroke-opacity:1"
         class="powerclip"
         d="M 25.931281,205.23122 H 361.3063 v 55.6 H 25.931281 Z m 293.926749,5.67199 a 30.845636,30.845636 0 0 0 -30.84564,-30.84563 30.845636,30.845636 0 0 0 -30.84564,30.84563 30.845636,30.845636 0 0 0 30.84564,30.84564 30.845636,30.845636 0 0 0 30.84564,-30.84564 z" />
    </clipPath>
    <filter
       style="color-interpolation-filters:sRGB"
       inkscape:label="Clean Edges"
       id="filter1616"
       x="-0.76018526"
       y="-0.32788814"
       width="2.5203705"
       height="1.6557763">
      <feGaussianBlur
         stdDeviation="0.4"
         result="blur"
         id="feGaussianBlur1610" />
      <feComposite
         in="SourceGraphic"
         in2="blur"
         operator="in"
         result="composite1"
         id="feComposite1612" />
      <feComposite
         in="composite1"
         in2="composite1"
         operator="in"
         result="composite2"
         id="feComposite1614" />
    </filter>
    <rect
       x="73.825325"
       y="394.82111"
       width="719.87549"
       height="102.68607"
       id="rect418-2-3" />
    <filter
       style="color-interpolation-filters:sRGB"
       inkscape:label="Clean Edges"
       id="filter1616-7"
       x="-0.76018526"
       y="-0.32788814"
       width="2.5203705"
       height="1.6557763">
      <feGaussianBlur
         stdDeviation="0.4"
         result="blur"
         id="feGaussianBlur1610-5" />
      <feComposite
         in="SourceGraphic"
         in2="blur"
         operator="in"
         result="composite1"
         id="feComposite1612-3" />
      <feComposite
         in="composite1"
         in2="composite1"
         operator="in"
         result="composite2"
         id="feComposite1614-5" />
    </filter>
  </defs>
  <g
     inkscape:groupmode="layer"
     id="layer2"
     inkscape:label="Layer 2"
     transform="translate(-17.083529,-56.734167)">
    <text
       xml:space="preserve"
       transform="matrix(0.26458333,0,0,0.26458333,8.8996281,9.7717341)"
       id="text2751"
       style="font-style:normal;font-variant:normal;font-weight:normal;font-stretch:normal;font-size:96px;line-height:1.15;font-family:Iceland;-inkscape-font-specification:Iceland;letter-spacing:9px;white-space:pre;shape-inside:url(#rect2753);display:none;fill:#000000;fill-opacity:1;stroke:none" />
    <g
       aria-label="HOLDT"
       transform="matrix(0.26458333,0,0,0.26458333,11.016295,10.652266)"
       id="text2751-6"
       style="font-size:96px;line-height:1.15;font-family:Iceland;-inkscape-font-specification:Iceland;letter-spacing:9px;white-space:pre;shape-inside:url(#rect2753-73);fill:#4c4c4c;fill-opacity:1"
       clip-path="url(#clipPath1399)"
       inkscape:path-effect="#path-effect1403">
      <path
         d="m 30.931281,255.15922 v -39.744 q 0,-2.88 1.152,-3.648 1.248,-0.768 4.128,-0.768 h 10.464 v 17.184 h 21.696 v -17.184 h 15.744 v 39.168 q 0,2.976 -0.96,4.032 -0.96,0.96 -4.416,0.96 h -10.368 v -18.816 h -21.696 v 18.816 z"
         style="font-weight:bold;font-family:genos;-inkscape-font-specification:'genos Bold';fill:#4c4c4c;fill-opacity:1"
         id="path1388"
         inkscape:original-d="m 30.931281,255.15922 v -39.744 q 0,-2.88 1.152,-3.648 1.248,-0.768 4.128,-0.768 h 10.464 v 17.184 h 21.696 v -17.184 h 15.744 v 39.168 q 0,2.976 -0.96,4.032 -0.96,0.96 -4.416,0.96 h -10.368 v -18.816 h -21.696 v 18.816 z" />
      <path
         d="m 130.07529,255.83122 q -7.68,0 -13.056,-1.056 -5.376,-1.056 -8.832,-3.552 -3.36,-2.592 -4.992,-7.008 -1.536,-4.416 -1.536,-11.136 0,-6.912 1.632,-11.232 1.632,-4.416 5.088,-6.912 3.552,-2.592 8.928,-3.648 5.472,-1.056 13.056,-1.056 7.584,0 12.96,1.056 5.376,1.056 8.736,3.648 3.456,2.496 4.992,6.912 1.632,4.416 1.632,11.232 0,6.816 -1.632,11.232 -1.632,4.416 -5.088,7.008 -3.456,2.496 -8.928,3.552 -5.376,0.96 -12.96,0.96 z m 0.096,-8.16 q 3.168,0 5.472,-0.576 2.4,-0.672 3.84,-2.304 1.536,-1.632 2.208,-4.416 0.768,-2.88 0.768,-7.296 0,-4.512 -0.768,-7.296 -0.672,-2.88 -2.208,-4.416 -1.44,-1.632 -3.84,-2.208 -2.304,-0.672 -5.472,-0.672 -3.264,0 -5.664,0.672 -2.304,0.576 -3.744,2.208 -1.44,1.536 -2.208,4.416 -0.768,2.784 -0.768,7.296 0,4.416 0.768,7.296 0.768,2.784 2.208,4.416 1.44,1.632 3.744,2.304 2.4,0.576 5.664,0.576 z"
         style="font-weight:bold;font-family:genos;-inkscape-font-specification:'genos Bold';fill:#4c4c4c;fill-opacity:1"
         id="path1390"
         inkscape:original-d="m 130.07529,255.83122 q -7.68,0 -13.056,-1.056 -5.376,-1.056 -8.832,-3.552 -3.36,-2.592 -4.992,-7.008 -1.536,-4.416 -1.536,-11.136 0,-6.912 1.632,-11.232 1.632,-4.416 5.088,-6.912 3.552,-2.592 8.928,-3.648 5.472,-1.056 13.056,-1.056 7.584,0 12.96,1.056 5.376,1.056 8.736,3.648 3.456,2.496 4.992,6.912 1.632,4.416 1.632,11.232 0,6.816 -1.632,11.232 -1.632,4.416 -5.088,7.008 -3.456,2.496 -8.928,3.552 -5.376,0.96 -12.96,0.96 z m 0.096,-8.16 q 3.168,0 5.472,-0.576 2.4,-0.672 3.84,-2.304 1.536,-1.632 2.208,-4.416 0.768,-2.88 0.768,-7.296 0,-4.512 -0.768,-7.296 -0.672,-2.88 -2.208,-4.416 -1.44,-1.632 -3.84,-2.208 -2.304,-0.672 -5.472,-0.672 -3.264,0 -5.664,0.672 -2.304,0.576 -3.744,2.208 -1.44,1.536 -2.208,4.416 -0.768,2.784 -0.768,7.296 0,4.416 0.768,7.296 0.768,2.784 2.208,4.416 1.44,1.632 3.744,2.304 2.4,0.576 5.664,0.576 z" />
      <path
         d="m 191.9713,210.99922 v 35.904 h 28.32 v 8.256 h -44.064 v -38.976 q 0,-1.728 0.192,-2.88 0.288,-1.152 1.344,-1.728 1.056,-0.576 3.648,-0.576 z"
         style="font-weight:bold;font-family:genos;-inkscape-font-specification:'genos Bold';fill:#4c4c4c;fill-opacity:1"
         id="path1392"
         inkscape:original-d="m 191.9713,210.99922 v 35.904 h 28.32 v 8.256 h -44.064 v -38.976 q 0,-1.728 0.192,-2.88 0.288,-1.152 1.344,-1.728 1.056,-0.576 3.648,-0.576 z" />
      <path
         d="m 290.15534,233.27122 q 0,7.008 -1.632,11.424 -1.536,4.32 -4.896,6.624 -3.264,2.304 -8.352,3.168 -5.088,0.768 -12.192,0.768 -4.32,0 -8.256,0 -3.936,0 -7.392,-0.096 -3.456,0 -6.528,0 -2.976,0 -5.568,0 v -37.824 q 0,-3.36 1.344,-4.8 1.344,-1.44 4.992,-1.536 2.496,0 5.376,0 2.976,-0.096 5.952,-0.096 3.072,0 6.048,0 3.072,0 5.664,0 6.816,0.096 11.616,1.056 4.8,0.864 7.872,3.264 3.072,2.304 4.512,6.72 1.44,4.32 1.44,11.328 z m -39.072,13.92 q 0.96,0 2.208,0 1.344,0 2.784,0.096 1.536,0 2.976,0 1.44,0 2.496,0 3.36,0 5.76,-0.576 2.4,-0.576 3.84,-2.112 1.44,-1.536 2.112,-4.32 0.672,-2.784 0.672,-7.008 0,-6.048 -1.248,-9.12 -1.152,-3.072 -3.936,-4.128 -2.688,-1.152 -7.584,-1.152 -1.152,0 -2.976,0 -1.728,0 -3.456,0.096 -1.728,0 -2.976,0.096 -0.288,0.48 -0.48,1.152 -0.192,0.672 -0.192,1.92 z"
         style="font-weight:bold;font-family:genos;-inkscape-font-specification:'genos Bold';fill:#4c4c4c;fill-opacity:1"
         id="path1394"
         inkscape:original-d="m 290.15534,233.27122 q 0,7.008 -1.632,11.424 -1.536,4.32 -4.896,6.624 -3.264,2.304 -8.352,3.168 -5.088,0.768 -12.192,0.768 -4.32,0 -8.256,0 -3.936,0 -7.392,-0.096 -3.456,0 -6.528,0 -2.976,0 -5.568,0 v -37.824 q 0,-3.36 1.344,-4.8 1.344,-1.44 4.992,-1.536 2.496,0 5.376,0 2.976,-0.096 5.952,-0.096 3.072,0 6.048,0 3.072,0 5.664,0 6.816,0.096 11.616,1.056 4.8,0.864 7.872,3.264 3.072,2.304 4.512,6.72 1.44,4.32 1.44,11.328 z m -39.072,13.92 q 0.96,0 2.208,0 1.344,0 2.784,0.096 1.536,0 2.976,0 1.44,0 2.496,0 3.36,0 5.76,-0.576 2.4,-0.576 3.84,-2.112 1.44,-1.536 2.112,-4.32 0.672,-2.784 0.672,-7.008 0,-6.048 -1.248,-9.12 -1.152,-3.072 -3.936,-4.128 -2.688,-1.152 -7.584,-1.152 -1.152,0 -2.976,0 -1.728,0 -3.456,0.096 -1.728,0 -2.976,0.096 -0.288,0.48 -0.48,1.152 -0.192,0.672 -0.192,1.92 z" />
      <path
         d="m 303.3143,210.99922 h 52.992 v 8.352 h -18.528 v 30.624 q 0,3.072 -0.96,4.128 -0.96,1.056 -4.32,1.056 h -10.56 v -35.808 h -18.624 z"
         style="font-weight:bold;font-family:genos;-inkscape-font-specification:'genos Bold';fill:#4c4c4c;fill-opacity:1"
         id="path1396"
         inkscape:original-d="m 303.3143,210.99922 h 52.992 v 8.352 h -18.528 v 30.624 q 0,3.072 -0.96,4.128 -0.96,1.056 -4.32,1.056 h -10.56 v -35.808 h -18.624 z" />
    </g>
    <g
       aria-label="HOLDT"
       transform="matrix(0.26458333,0,0,0.26458333,11.016295,10.830068)"
       id="text2751-9"
       style="font-size:96px;line-height:1.15;font-family:Iceland;-inkscape-font-specification:Iceland;letter-spacing:9px;white-space:pre;shape-inside:url(#rect2753-7);fill:#506dae;fill-opacity:1;stroke-width:1.00157;stroke-dasharray:none"
       clip-path="url(#clipPath1339)">
      <path
         d="m 30.931281,255.15922 v -39.744 q 0,-2.88 1.152,-3.648 1.248,-0.768 4.128,-0.768 h 10.464 v 17.184 h 21.696 v -17.184 h 15.744 v 39.168 q 0,2.976 -0.96,4.032 -0.96,0.96 -4.416,0.96 h -10.368 v -18.816 h -21.696 v 18.816 z"
         style="font-weight:bold;font-family:genos;-inkscape-font-specification:'genos Bold';fill:#506dae;fill-opacity:1;stroke-width:1.00157;stroke-dasharray:none"
         id="path1069" />
      <path
         d="m 130.07529,255.83122 q -7.68,0 -13.056,-1.056 -5.376,-1.056 -8.832,-3.552 -3.36,-2.592 -4.992,-7.008 -1.536,-4.416 -1.536,-11.136 0,-6.912 1.632,-11.232 1.632,-4.416 5.088,-6.912 3.552,-2.592 8.928,-3.648 5.472,-1.056 13.056,-1.056 7.584,0 12.96,1.056 5.376,1.056 8.736,3.648 3.456,2.496 4.992,6.912 1.632,4.416 1.632,11.232 0,6.816 -1.632,11.232 -1.632,4.416 -5.088,7.008 -3.456,2.496 -8.928,3.552 -5.376,0.96 -12.96,0.96 z m 0.096,-8.16 q 3.168,0 5.472,-0.576 2.4,-0.672 3.84,-2.304 1.536,-1.632 2.208,-4.416 0.768,-2.88 0.768,-7.296 0,-4.512 -0.768,-7.296 -0.672,-2.88 -2.208,-4.416 -1.44,-1.632 -3.84,-2.208 -2.304,-0.672 -5.472,-0.672 -3.264,0 -5.664,0.672 -2.304,0.576 -3.744,2.208 -1.44,1.536 -2.208,4.416 -0.768,2.784 -0.768,7.296 0,4.416 0.768,7.296 0.768,2.784 2.208,4.416 1.44,1.632 3.744,2.304 2.4,0.576 5.664,0.576 z"
         style="font-weight:bold;font-family:genos;-inkscape-font-specification:'genos Bold';fill:#506dae;fill-opacity:1;stroke-width:1.00157;stroke-dasharray:none"
         id="path1071" />
      <path
         d="m 191.9713,210.99922 v 35.904 h 28.32 v 8.256 h -44.064 v -38.976 q 0,-1.728 0.192,-2.88 0.288,-1.152 1.344,-1.728 1.056,-0.576 3.648,-0.576 z"
         style="font-weight:bold;font-family:genos;-inkscape-font-specification:'genos Bold';fill:#506dae;fill-opacity:1;stroke-width:1.00157;stroke-dasharray:none"
         id="path1073" />
      <path
         id="path1075"
         style="font-weight:bold;font-family:genos;-inkscape-font-specification:'genos Bold';fill:#506dae;fill-opacity:1;stroke-width:1.00157;stroke-dasharray:none"
         d="M 235.49183 201.8337 C 232.69644 201.8337 229.90049 201.87829 227.10511 201.96847 L 219.53089 201.96847 C 216.10429 202.05864 213.76012 202.77992 212.49769 204.13253 C 211.23525 205.48513 210.60316 207.74012 210.60316 210.8962 L 210.60316 264.18917 L 218.44886 264.18917 L 227.64612 264.18917 C 230.89237 264.27934 234.36502 264.32394 238.06214 264.32394 L 249.69495 264.32394 C 256.3678 264.32394 262.09349 263.96329 266.87269 263.2419 C 271.65189 262.43034 275.57436 260.94318 278.64027 258.77901 C 281.79634 256.61484 284.09593 253.50284 285.5387 249.44503 C 287.07166 245.29704 287.83753 239.932 287.83753 233.34933 C 287.83753 226.76665 287.16084 221.4462 285.80823 217.38839 C 284.45563 213.2404 282.33637 210.08576 279.45081 207.92159 C 276.56526 205.66725 272.86964 204.13354 268.36097 203.32198 C 263.85229 202.42024 258.39611 201.92387 251.99378 201.8337 L 244.01331 201.8337 L 235.49183 201.8337 z M 242.79652 213.06026 L 246.98792 213.06026 C 251.58678 213.06026 255.15056 213.60123 257.67542 214.68331 C 260.29046 215.67522 262.13827 217.61416 263.22034 220.49972 C 264.3926 223.38527 264.97816 227.66839 264.97816 233.34933 C 264.97816 237.31697 264.6621 240.6093 264.03089 243.22433 C 263.39967 245.83936 262.40889 247.86748 261.05628 249.31026 C 259.70368 250.75304 257.90047 251.74579 255.64613 252.28683 C 253.39179 252.82787 250.68501 253.09737 247.52894 253.09737 L 244.01331 253.09737 L 239.81995 253.09737 C 238.46735 253.0072 237.16051 252.96261 235.89808 252.96261 L 232.78675 252.96261 L 232.78675 217.65987 C 232.78675 216.48761 232.87593 215.58601 233.05628 214.95479 C 233.23663 214.32357 233.4635 213.78261 233.73402 213.33175 C 234.90627 213.24157 236.30425 213.19503 237.92737 213.19503 C 239.5505 213.10486 241.17339 213.06026 242.79652 213.06026 z M 275.09534 213.30245 L 279.21644 214.96847 C 279.83997 215.93623 277.91175 217.90792 277.91175 217.90792 L 280.84144 219.06808 C 280.84144 219.06808 279.5877 220.57649 278.6637 220.19698 C 280.34784 222.68977 274.26331 219.29464 274.26331 219.29464 C 273.85621 218.45864 275.33558 217.08565 275.33558 217.08565 C 275.33558 217.08565 273.33046 218.14929 273.22034 216.73018 L 275.18909 214.86886 C 275.18909 214.86886 273.50225 215.03261 274.1012 213.71847 L 275.09534 213.30245 z " />
      <path
         d="m 306.37806,201.9693 h 74.66383 v 11.76767 H 354.9366 v 43.14812 q 0,4.32834 -1.3526,5.8162 -1.35261,1.48787 -6.08673,1.48787 h -14.87866 v -50.45219 h -26.24055 z"
         style="font-weight:bold;font-family:genos;-inkscape-font-specification:'genos Bold';fill:#506dae;fill-opacity:1;stroke-width:1.00157;stroke-dasharray:none"
         id="path1077" />
    </g>
    <text
       xml:space="preserve"
       transform="matrix(0.24577156,0,0,0.26458333,0.52495601,-25.610569)"
       id="text416"
       style="font-style:normal;font-variant:normal;font-weight:normal;font-stretch:normal;font-size:24px;line-height:1.25;font-family:Iceland;-inkscape-font-specification:Iceland;white-space:pre;shape-inside:url(#rect418);display:none;fill:#000000;fill-opacity:1;stroke:none;stroke-width:1.03757" />
    <text
       xml:space="preserve"
       transform="matrix(0.24577156,0,0,0.26458333,0.52495601,-25.610569)"
       id="text416-0"
       style="font-style:normal;font-variant:normal;font-weight:normal;font-stretch:normal;font-size:24px;line-height:1.25;font-family:Iceland;-inkscape-font-specification:Iceland;white-space:pre;shape-inside:url(#rect418-2);display:none;fill:#ffffff;fill-opacity:1;stroke:none;stroke-width:1.03757" />
    <circle
       style="display:none;fill:none;fill-opacity:0.201868;stroke:#ffffff;stroke-width:2.4;stroke-dasharray:none;stroke-opacity:1"
       id="path2749-1"
       cx="85.367485"
       cy="65.395409"
       r="8.1612415" />
    <path
       style="display:none;fill:#e09e00;fill-opacity:1;stroke:none;stroke-width:0.264583px;stroke-linecap:butt;stroke-linejoin:miter;stroke-opacity:1"
       d="m 83.801792,67.266339 1.090312,0.440745 c 0.164977,0.256055 -0.344907,0.777753 -0.344907,0.777753 l 0.775295,0.306817 c 0,0 -0.332008,0.399383 -0.576483,0.298971 0.445596,0.65955 -1.164318,-0.238624 -1.164318,-0.238624 -0.107712,-0.221192 0.283576,-0.584749 0.283576,-0.584749 0,0 -0.530485,0.281541 -0.559621,-0.09393 l 0.520919,-0.492308 c 0,0 -0.446056,0.04317 -0.287582,-0.30453 z"
       id="path84516-9"
       sodipodi:nodetypes="ccccccccccc" />
    <circle
       style="display:inline;opacity:0.6;mix-blend-mode:overlay;fill:#000000;fill-opacity:0.403922;stroke:none;stroke-width:0.3;stroke-dasharray:none;stroke-opacity:1"
       id="path2749"
       cx="87.484154"
       cy="66.453743"
       r="8.1612415"
       inkscape:label="only opacity" />
    <circle
       style="display:inline;fill:none;fill-opacity:0.2;stroke:#ffffff;stroke-width:0.3;stroke-dasharray:none;stroke-opacity:1"
       id="path2749-2"
       cx="87.484154"
       cy="66.453743"
       r="8.1612415"
       inkscape:label="only stroke" />
    <text
       xml:space="preserve"
       transform="matrix(0.24577156,0,0,0.26458333,0.52495633,-25.85241)"
       id="text416-0-6"
       style="font-style:normal;font-variant:normal;font-weight:normal;font-stretch:normal;font-size:24px;line-height:1.25;font-family:Iceland;-inkscape-font-specification:Iceland;white-space:pre;shape-inside:url(#rect418-2-3);display:inline;fill:#3d529a;fill-opacity:1;stroke:none;stroke-width:1.03757"><tspan
         x="73.826172"
         y="416.37701"
         id="tspan5625">Hull- og lekkasje deteksjons teknologi</tspan></text>
  </g>
</svg>
